<svg width="389" height="229" viewBox="0 0 389 229" fill="none" xmlns="http://www.w3.org/2000/svg">
<path d="M206.863 1.70117C215.029 19.6161 225.034 32.9693 238.691 43.0605C252.343 53.1475 269.61 59.9507 292.259 64.8223H292.26C293.825 65.1587 295.273 65.4773 296.406 65.7324C295.962 65.7924 295.476 65.8567 294.965 65.9199C265.207 69.6043 235.913 82.7876 216.823 97.8057C207.283 105.311 200.249 113.308 197.004 120.85C195.379 124.625 194.696 128.308 195.146 131.764C195.596 135.227 197.181 138.427 200.028 141.234C203.06 144.223 207.505 146.461 213.052 147.974C218.602 149.488 225.288 150.285 232.834 150.371C247.927 150.543 266.517 147.871 286.479 142.341C323.818 131.996 355.394 114.281 384.125 87.5586V87.5576L385.912 85.8945L384.349 88.4961C358.656 131.242 315.52 162.856 262.572 177.778L260.044 178.477C238.035 184.424 232.431 186.272 224.338 190.281C209.621 197.571 199.207 209.193 193.561 224.624L193.295 225.361L192.584 227.37L190.696 224.226C174.517 197.286 148.352 180.952 107.871 172.396C104.247 171.631 99.1208 170.707 94.6357 169.976C92.3929 169.61 90.3068 169.292 88.6465 169.064C87.6416 168.927 86.7777 168.823 86.127 168.762C86.185 168.755 86.2444 168.747 86.3047 168.74C116.31 165.353 147.033 151.685 167.482 136.115C177.703 128.334 185.401 120.045 189.141 112.284C191.013 108.4 191.904 104.622 191.6 101.096C191.294 97.559 189.787 94.3118 186.929 91.499C182.801 87.438 176.166 84.7341 167.842 83.2676C159.506 81.799 149.416 81.5605 138.314 82.4814C116.111 84.3234 89.7988 90.8081 65.249 101.445C42.7591 111.19 22.1384 124.755 2.5918 142.658C2.14047 143.071 1.74115 143.433 1.39648 143.742C1.48127 143.605 1.5711 143.459 1.66797 143.305C2.39033 142.155 3.43812 140.551 4.83594 138.418C24.6515 108.181 57.1454 81.6438 92.9863 66.4424C94.8129 65.6672 97.7167 64.4269 99.4385 63.6865C106.25 60.7575 119.364 56.4684 136.278 51.6445C159.943 44.8958 166.542 42.4174 176.641 36.4336C190.232 28.3813 201.72 15.1532 206.411 2.10938L206.692 1.3252L206.863 1.70117Z" stroke="black"/>
</svg>
